<svg width="176" height="20" viewBox="0 0 176 20" fill="none" xmlns="http://www.w3.org/2000/svg">
<path fill-rule="evenodd" clip-rule="evenodd" d="M13.9645 1.0202V3.42807C13.9645 3.58499 13.8578 3.68947 13.6979 3.68947H3.17108V8.60988H11.8593C12.0193 8.60988 12.1255 8.71479 12.1255 8.87172V11.2796C12.1255 11.4365 12.0193 11.5412 11.8593 11.5412H3.17108V18.8166C3.17108 18.9737 3.06504 19.0782 2.90488 19.0782H0.2662C0.10648 19.078 0 18.9735 0 18.8164V1.02042C0 0.863491 0.10648 0.758586 0.2662 0.758586H13.6979C13.8578 0.758586 13.9645 0.863491 13.9645 1.02042V1.0202ZM29.8606 11.3314C28.8882 8.68824 27.8091 6.04488 26.7025 3.63701H26.0766C24.9704 6.04488 23.8779 8.68824 22.9053 11.3314H29.8606ZM35.444 19.078H32.5391C32.3792 19.078 32.2729 18.9992 32.2329 18.8423C31.826 17.2656 31.3637 15.7032 30.8469 14.1578H21.9325C21.3996 15.7545 20.9328 17.3373 20.5597 18.8423C20.5201 18.9992 20.4134 19.078 20.2536 19.078H17.4552C17.2687 19.078 17.162 18.9733 17.2154 18.7903C18.8943 12.954 21.4526 6.51609 24.0376 1.09877C24.1578 0.849893 24.3043 0.758586 24.5575 0.758586H28.3415C28.5947 0.758586 28.7415 0.849893 28.8614 1.09877C31.4732 6.50292 33.9918 12.954 35.6838 18.7903C35.7372 18.9733 35.6305 19.078 35.444 19.078ZM40.2138 10.0753C40.2138 4.39618 44.0247 0.418182 49.4613 0.418182H49.8608C53.2724 0.418182 55.9108 2.11934 57.3096 4.57944C57.4028 4.73636 57.376 4.86739 57.2163 4.94574L54.8711 6.08416C54.7114 6.16273 54.5112 6.16273 54.4047 5.96652C53.4191 4.29149 51.9396 3.40173 49.7543 3.40173H49.3546C45.9301 3.40173 43.5717 6.07121 43.5717 9.94452C43.5717 13.8306 45.8903 16.4348 49.3546 16.4348H49.7543C51.993 16.4348 53.299 15.6889 54.2982 14.5504C54.4315 14.4065 54.5781 14.3806 54.738 14.4589L57.1496 15.6105C57.2429 15.6625 57.2827 15.7279 57.2827 15.7933C57.2827 15.8592 57.2563 15.9114 57.2031 15.9898C55.7243 18.1095 53.059 19.4182 49.8078 19.4182H49.4081C43.8779 19.4182 40.2138 15.6889 40.2138 10.0753ZM78.5358 16.4087V18.8164C78.5358 18.9735 78.4291 19.078 78.2692 19.078H64.2781C64.1181 19.078 64.0114 18.9735 64.0114 18.8164V1.02042C64.0114 0.863491 64.1181 0.758586 64.2781 0.758586H78.0292C78.1896 0.758586 78.296 0.863491 78.296 1.02042V3.42828C78.296 3.58521 78.1896 3.68968 78.0292 3.68968H67.1827V8.45274H76.0039C76.1638 8.45274 76.2705 8.55743 76.2705 8.71457V11.0961C76.2705 11.253 76.1638 11.3579 76.0039 11.3579H67.1827V16.1471H78.2692C78.4291 16.1471 78.5358 16.2516 78.5358 16.4089V16.4087ZM99.3753 13.7783C99.3753 12.0774 98.2294 11.3051 95.711 11.3051H89.4351V16.2253H95.711C98.2696 16.2253 99.3753 15.4924 99.3753 13.7783ZM94.8183 3.61068H89.4349V8.53088H94.8183C97.2301 8.53088 98.3361 7.75898 98.3361 6.071C98.3361 4.38279 97.2301 3.61068 94.8183 3.61068ZM102.627 14.0529C102.627 17.2588 100.122 19.078 95.6978 19.078H86.5302C86.3703 19.078 86.2636 18.9731 86.2636 18.8164V1.02042C86.2636 0.862844 86.3703 0.75837 86.5302 0.75837H94.8849C99.1888 0.75837 101.534 2.43341 101.534 5.49553C101.534 7.51053 100.495 8.83221 98.3895 9.44719C101.347 10.0622 102.627 11.8026 102.627 14.0531V14.0529ZM118.203 16.4348C122.027 16.4348 124.439 13.8569 124.439 9.91818C124.439 5.97969 122.027 3.40152 118.203 3.40152H117.803C113.979 3.40152 111.567 5.97969 111.567 9.91818C111.567 13.8569 113.979 16.4348 117.803 16.4348H118.203ZM108.209 9.91818C108.209 4.39618 111.94 0.418398 117.803 0.418398H118.203C124.066 0.418398 127.797 4.39618 127.797 9.91818C127.797 15.4402 124.066 19.4182 118.203 19.4182H117.803C111.94 19.4182 108.209 15.4402 108.209 9.9184V9.91818ZM143.2 16.4348C147.024 16.4348 149.436 13.8569 149.436 9.91818C149.436 5.97969 147.024 3.40152 143.2 3.40152H142.8C138.976 3.40152 136.564 5.97969 136.564 9.91818C136.564 13.8569 138.976 16.4348 142.8 16.4348H143.2ZM133.206 9.91818C133.206 4.39618 136.937 0.418398 142.8 0.418398H143.2C149.063 0.418398 152.794 4.39618 152.794 9.91818C152.794 15.4402 149.063 19.4182 143.2 19.4182H142.8C136.937 19.4182 133.206 15.4402 133.206 9.9184V9.91818ZM175.779 19.078H172.341C172.114 19.078 172.021 19.0255 171.874 18.8557C169.463 16.0685 166.611 13.2944 164.186 11.2528H162.641V18.8164C162.641 18.9735 162.534 19.078 162.374 19.078H159.735C159.576 19.078 159.469 18.9735 159.469 18.8164V1.02042C159.469 0.863491 159.576 0.758586 159.735 0.758586H162.374C162.534 0.758586 162.641 0.863491 162.641 1.02042V8.24358H164.213C166.811 5.9404 169.21 3.45418 171.168 0.955014C171.301 0.784704 171.408 0.758586 171.568 0.758586H174.819C174.979 0.758586 175.059 0.837157 175.059 0.942063C175.059 0.9943 175.033 1.0597 174.966 1.13828C172.101 4.60577 169.263 7.44556 166.638 9.64383C169.982 12.4261 173.088 15.4719 175.926 18.751C176.072 18.9213 175.992 19.0782 175.779 19.0782" fill="#fff"/>
</svg>
