<svg width="132" height="37" viewBox="0 0 132 37" fill="none" xmlns="http://www.w3.org/2000/svg">
<path d="M25.4209 16.1428H14.3299C14.1924 16.1428 14.0606 16.1976 13.9634 16.295C13.8663 16.3924 13.8116 16.5245 13.8115 16.6623V22.0976C13.8116 22.2354 13.8662 22.3676 13.9634 22.4651C14.0606 22.5627 14.1924 22.6176 14.3299 22.6179H18.6565V29.3705C18.6565 29.3705 17.685 29.7027 14.9991 29.7027C11.8303 29.7027 7.40363 28.5418 7.40363 18.7853C7.40363 9.02689 12.0131 7.74267 16.3405 7.74267C20.0865 7.74267 21.7002 8.40406 22.727 8.72223C23.0497 8.8214 23.3481 8.49965 23.3481 8.21234L24.5854 2.9611C24.5854 2.82695 24.5401 2.66497 24.3873 2.55506C23.9703 2.257 21.4262 0.830078 14.9991 0.830078C7.59491 0.830078 0 3.98776 0 19.1658C0 34.3449 8.6956 36.6064 16.0231 36.6064C22.0902 36.6064 25.7707 34.0077 25.7707 34.0077C25.9225 33.9234 25.9389 33.711 25.9389 33.6135V16.662C25.9389 16.3755 25.707 16.1428 25.4209 16.1428ZM82.5796 2.64872C82.5802 2.5805 82.5673 2.51284 82.5417 2.44962C82.5162 2.38641 82.4784 2.32888 82.4305 2.28035C82.3827 2.23182 82.3258 2.19324 82.263 2.16683C82.2003 2.14041 82.1329 2.12668 82.0649 2.12643H75.8196C75.7515 2.12668 75.684 2.14039 75.6211 2.16678C75.5582 2.19316 75.5011 2.2317 75.4531 2.2802C75.4051 2.3287 75.3671 2.38621 75.3412 2.44944C75.3153 2.51267 75.3022 2.58038 75.3024 2.64872L75.3041 14.7453H65.5699V2.64872C65.5704 2.58047 65.5574 2.5128 65.5318 2.44958C65.5061 2.38636 65.4683 2.32884 65.4204 2.28032C65.3726 2.23179 65.3156 2.19322 65.2528 2.16681C65.19 2.1404 65.1227 2.12668 65.0546 2.12643H58.8099C58.6724 2.12716 58.5408 2.18258 58.4441 2.28052C58.3474 2.37846 58.2934 2.5109 58.294 2.64872V35.4029C58.294 35.6916 58.5257 35.9266 58.8099 35.9266H65.0546C65.3401 35.9266 65.5699 35.6913 65.5699 35.4029V21.3926H75.3041L75.287 35.4029C75.287 35.6916 75.519 35.9266 75.8045 35.9266H82.0643C82.3504 35.9266 82.5791 35.6913 82.5796 35.4029V2.64872ZM37.2053 6.94712C37.2053 4.69296 35.4024 2.87157 33.1782 2.87157C30.9562 2.87157 29.152 4.69296 29.152 6.94712C29.152 9.19851 30.9562 11.0246 33.1782 11.0246C35.4024 11.0246 37.2053 9.19851 37.2053 6.94712ZM36.7587 28.4936V13.3743C36.7591 13.2365 36.7049 13.1041 36.608 13.0063C36.5112 12.9084 36.3795 12.853 36.242 12.8523H30.0169C29.7313 12.8523 29.4757 13.1476 29.4757 13.4349V35.0961C29.4757 35.7329 29.8715 35.9219 30.3838 35.9219H35.9925C36.6078 35.9219 36.7587 35.6189 36.7587 35.0861V28.4936ZM106.313 12.9016H100.116C99.8315 12.9016 99.6001 13.1363 99.6001 13.4253V29.4856C99.6001 29.4856 98.0256 30.6404 95.7912 30.6404C93.5569 30.6404 92.9641 29.6242 92.9641 27.4312V13.4253C92.9641 13.1363 92.7329 12.9016 92.4487 12.9016H86.159C85.8754 12.9016 85.6426 13.1363 85.6426 13.4253V28.4914C85.6426 35.0051 89.2646 36.5987 94.2475 36.5987C98.335 36.5987 101.631 34.3355 101.631 34.3355C101.631 34.3355 101.787 35.528 101.858 35.6696C101.93 35.8106 102.114 35.953 102.314 35.953L106.316 35.9354C106.599 35.9354 106.832 35.7002 106.832 35.4126L106.83 13.4256C106.83 13.1363 106.598 12.9016 106.313 12.9016ZM120.806 30.6205C118.656 30.555 117.198 29.5771 117.198 29.5771V19.2049C117.198 19.2049 118.637 18.3212 120.401 18.1631C122.633 17.9628 124.783 18.6385 124.783 23.974C124.784 29.6008 123.813 30.7112 120.806 30.6205ZM123.25 12.1661C119.73 12.1661 117.336 13.7401 117.336 13.7401V2.64899C117.336 2.35975 117.106 2.12643 116.821 2.12643H110.559C110.49 2.12676 110.423 2.14053 110.36 2.16697C110.297 2.19341 110.24 2.232 110.193 2.28053C110.145 2.32906 110.107 2.38657 110.081 2.4498C110.055 2.51302 110.042 2.5807 110.042 2.64899V35.4029C110.042 35.6916 110.274 35.9266 110.559 35.9266H114.905C115.1 35.9266 115.248 35.8255 115.358 35.6486C115.466 35.4726 115.622 34.1385 115.622 34.1385C115.622 34.1385 118.182 36.5709 123.03 36.5709C128.721 36.5709 131.985 33.6774 131.985 23.5815C131.985 13.4853 126.772 12.1661 123.25 12.1661ZM54.707 12.8496H50.0225L50.0154 6.6463C50.0154 6.4116 49.8947 6.29425 49.624 6.29425H43.2403C42.9921 6.29425 42.8588 6.40389 42.8588 6.64272V13.0531C42.8588 13.0531 39.6598 13.8269 39.4435 13.8897C39.3356 13.9211 39.2408 13.9867 39.1733 14.0767C39.1059 14.1667 39.0694 14.2763 39.0695 14.3889V18.417C39.0695 18.7068 39.3003 18.9399 39.5859 18.9399H42.8588V28.6303C42.8588 35.8282 47.8959 36.5354 51.295 36.5354C52.848 36.5354 54.7059 36.0357 55.0126 35.9216C55.1981 35.8533 55.3058 35.6608 55.3058 35.452L55.3111 31.0208C55.3111 30.7315 55.0676 30.4982 54.7933 30.4982C54.5204 30.4982 53.822 30.6095 53.1031 30.6095C50.8022 30.6095 50.0225 29.5371 50.0225 28.149L50.0222 18.9396H54.707C54.9925 18.9396 55.2237 18.7063 55.2237 18.4168V13.371C55.224 13.3027 55.2109 13.2351 55.1851 13.1719C55.1593 13.1087 55.1213 13.0513 55.0733 13.0028C55.0253 12.9544 54.9682 12.9159 54.9054 12.8896C54.8425 12.8633 54.7751 12.8497 54.707 12.8496Z" fill="#fff"/>
</svg>
